# xmcd
#
# Track frame offsets:
#  150
#  18502
#  34360
#  54984
#  73926
#  95721
#  116270
#  136394
#  158142
#  176304
#  191043
#  209682
#
# Disc length: 3111 seconds
#
# Revision: 0
# Processed by: cddbd v1.5.2PL0 Copyright (c) Steve Scherf et al.
# Submitted via: Collectorz.com_Music_Collector 6.11
#
DISCID=ad0c250c
DTITLE=Paul Pearcy - Come And Take It
DYEAR=2006
DGENRE=Alt Country
TTITLE0=Psychobabylon
TTITLE1=Little Wheel
TTITLE2=Waitin' For Rain
TTITLE3=To Live's To Fly
TTITLE4=Damage Alley
TTITLE5=Ain't No Law
TTITLE6=Born to Sway
TTITLE7=Stage Door Jonny
TTITLE8=Great Big World
TTITLE9=Anasazi
TTITLE10=Slowing Down Sunset
TTITLE11=Houseboats and Chinese Lanterns
EXTD=
EXTT0=
EXTT1=
EXTT2=
EXTT3=
EXTT4=
EXTT5=
EXTT6=
EXTT7=
EXTT8=
EXTT9=
EXTT10=
EXTT11=
PLAYORDER=
